Coordinates
version=1
nRows=11
nColumns=40
inDegrees=yes

Units are S.I. units (second, meters, Newtons, ...)
Angles are in degrees.

endheader
time	pelvis_tilt	pelvis_list	pelvis_rotation	pelvis_tx	pelvis_ty	pelvis_tz	hip_flexion_r	hip_adduction_r	hip_rotation_r	knee_angle_r	knee_angle_r_beta	ankle_angle_r	subtalar_angle_r	mtp_angle_r	hip_flexion_l	hip_adduction_l	hip_rotation_l	knee_angle_l	knee_angle_l_beta	ankle_angle_l	subtalar_angle_l	mtp_angle_l	lumbar_extension	lumbar_bending	lumbar_rotation	arm_flex_r	arm_add_r	arm_rot_r	elbow_flex_r	pro_sup_r	wrist_flex_r	wrist_dev_r	arm_flex_l	arm_add_l	arm_rot_l	elbow_flex_l	pro_sup_l	wrist_flex_l	wrist_dev_l
     29.04250000	     -3.67429049	     -4.84875065	      0.26913357	      0.86303414	      0.92700787	      0.48883297	     18.71634508	      2.40329589	    -16.04264433	     16.74742594	     16.74742594	      4.32824796	     -4.33473211	     -4.45069988	      6.55023194	     -9.03203925	     -6.71611295	     39.31799088	     39.31799088	     12.71983446	    -12.91857060	     -8.91071184	     -7.92078039	      6.97920589	      2.27247467	     -1.21556894	    -11.88960763	     -7.75712681	     25.30877427	     46.88428690	      0.00000000	      0.00000000	     14.19935905	    -11.02339368	     -7.76569127	     57.62696333	     46.92081504	      0.00000000	      0.00000000
     29.05457143	     -3.62231332	     -4.95049732	      0.53536324	      0.86293229	      0.92798686	      0.49069201	     17.81652180	      2.68367143	    -16.33147413	     16.10049740	     16.10049740	      4.57217072	     -3.98102918	     -4.73382882	      8.64118674	     -9.50179180	     -5.54009888	     43.48535329	     43.48535329	     10.53200426	    -14.44871028	     -8.99193913	     -8.12639753	      7.05502750	      2.40755488	      0.54043509	    -12.01224285	     -7.73311066	     26.11265058	     46.86117442	      0.00000000	      0.00000000	     13.50093159	    -10.56789278	     -7.43444410	     56.05380461	     46.86806923	      0.00000000	      0.00000000
     29.06664286	     -3.66710588	     -5.11991625	      0.85989087	      0.86257734	      0.92864926	      0.49240593	     17.02432450	      3.01777798	    -16.73392726	     15.41559043	     15.41559043	      4.71933181	     -3.58803997	     -5.04650245	     10.99053555	     -9.93009342	     -4.19174396	     47.64044483	     47.64044483	      8.38140826	    -15.77670724	     -8.68419963	     -8.17682783	      7.17933693	      2.43448353	      2.30786369	    -12.18602482	     -7.70456596	     26.99522686	     46.83393590	      0.00000000	      0.00000000	     12.75861315	    -10.11899843	     -7.06113431	     54.20439806	     46.80774269	      0.00000000	      0.00000000
     29.07871429	     -3.75863141	     -5.10475895	      1.20073008	      0.86204333	      0.92914022	      0.49377975	     16.22805501	      3.11722857	    -17.32227943	     14.57275349	     14.57275349	      4.32919743	     -3.04906988	     -7.15166134	     13.50607362	     -9.93413130	     -2.70574698	     51.77299581	     51.77299581	      7.48545957	    -16.37898959	     -5.19312600	     -8.08613483	      7.20249782	      3.18522809	      3.25891842	    -12.62164212	     -7.14763197	     28.62432150	     46.70022516	      0.00000000	      0.00000000	     13.98626881	     -9.23878641	     -5.92294705	     47.58901415	     46.64330287	      0.00000000	      0.00000000
     29.09078571	     -3.77079418	     -5.25472614	      1.52115840	      0.86131891	      0.92954071	      0.49528055	     15.48341640	      3.42236335	    -17.70277652	     13.97922024	     13.97922024	      4.39475522	     -2.74537284	     -7.72940727	     15.93713298	    -10.14685078	     -1.42068531	     55.56299769	     55.56299769	      6.74444330	    -16.45925375	     -2.28741643	     -8.24189099	      7.33836145	      3.19505573	      4.89409349	    -12.89410744	     -6.98004925	     30.46006216	     46.60100624	      0.00000000	      0.00000000	     13.42375296	     -8.92894426	     -5.20735850	     45.16105237	     46.54065254	      0.00000000	      0.00000000
     29.10285714	     -3.84737200	     -5.39492328	      1.78848340	      0.86037427	      0.92970687	      0.49676444	     14.88011596	      3.69570308	    -18.10907434	     13.50053799	     13.50053799	      4.50216032	     -2.34919714	     -8.22021618	     18.46646540	    -10.30575564	     -0.26496339	     59.05227390	     59.05227390	      6.76525127	    -16.03471130	      1.62439955	     -8.33493714	      7.42558487	      3.79328352	      6.20954312	    -13.40297727	     -6.52326745	     32.11301456	     46.47358997	      0.00000000	      0.00000000	     13.33580031	     -8.30303230	     -4.35547660	     42.14286884	     46.41672256	      0.00000000	      0.00000000
     29.11492857	     -3.87522513	     -5.53071523	      2.04317876	      0.85937031	      0.92994730	      0.49825144	     14.26246167	      3.97052420	    -18.45280594	     13.09370437	     13.09370437	      4.73754996	     -1.95119397	     -8.31326770	     20.72350142	    -10.44670170	      0.70989006	     61.70964497	     61.70964497	      5.99150007	    -16.00641380	      2.62586301	     -8.51875991	      7.49064309	      3.71969935	      8.22426784	    -13.60253369	     -6.44537469	     33.39456252	     46.41914139	      0.00000000	      0.00000000	     12.44988039	     -8.04653018	     -3.96123826	     40.32515604	     46.34478015	      0.00000000	      0.00000000
     29.12700000	     -3.93942876	     -5.59429926	      2.23237074	      0.85833519	      0.93012352	      0.49978202	     13.69522900	      4.18542514	    -18.77096193	     12.70590253	     12.70590253	      4.98242432	     -1.60608158	     -8.36901733	     22.90868114	    -10.53931171	      1.41432147	     63.80355332	     63.80355332	      5.59289581	    -15.87795044	      3.39537100	     -8.63355279	      7.41263242	      3.86890850	     10.14491741	    -13.82180868	     -6.35084299	     34.56241255	     46.37203944	      0.00000000	      0.00000000	     11.67411584	     -7.70230445	     -3.59399078	     38.51107342	     46.27902434	      0.00000000	      0.00000000
     29.13907143	     -4.00742175	     -5.71679772	      2.44761135	      0.85722245	      0.93034235	      0.50128311	     13.15757194	      4.44701809	    -19.02863013	     12.35953463	     12.35953463	      5.21620082	     -1.18022781	     -8.41116668	     25.01650622	    -10.65801488	      2.10952068	     65.28658691	     65.28658691	      5.45890921	    -15.70721973	      4.21361388	     -8.77825348	      7.48211909	      3.98098498	     12.12145864	    -14.06127686	     -6.20882530	     35.86153564	     46.31736319	      0.00000000	      0.00000000	     10.94442942	     -7.38926200	     -3.18801640	     36.34328616	     46.20824246	      0.00000000	      0.00000000
     29.15114286	     -4.06857548	     -5.81086965	      2.63144893	      0.85615911	      0.93060814	      0.50276343	     12.61547815	      4.69949038	    -19.24504768	     12.01516429	     12.01516429	      5.48198307	     -0.85322083	     -8.39685186	     26.95632030	    -10.76710433	      2.57500737	     66.10153523	     66.10153523	      5.48706276	    -15.70610237	      4.72312418	     -8.94593941	      7.47941111	      4.17959078	     14.04415078	    -14.28696288	     -6.09955560	     37.11791215	     46.26851260	      0.00000000	      0.00000000	     10.12096505	     -7.09311086	     -2.85434397	     34.49828525	     46.14664668	      0.00000000	      0.00000000
     29.16321429	     -4.05008490	     -5.67530847	      2.65744151	      0.85523078	      0.93101088	      0.50425312	     12.04570016	      4.71241958	    -19.18337902	     11.83550497	     11.83550497	      5.80565437	     -0.72700952	     -8.43131724	     28.52784639	    -10.77334226	      2.56806598	     66.19479088	     66.19479088	      5.59897178	    -15.80388800	      4.75579883	     -9.19908488	      7.13704457	      4.92754168	     15.82788034	    -14.73406545	     -6.14434009	     37.90974105	     46.25161427	      0.00000000	      0.00000000	      9.20055351	     -6.68177554	     -2.72006939	     33.79551993	     46.11291976	      0.00000000	      0.00000000
